<svg width="18" height="17" viewBox="0 0 18 17" fill="none" xmlns="http://www.w3.org/2000/svg">
<path d="M9 0.166672C13.6025 0.166672 17.3333 3.8975 17.3333 8.5C17.3333 13.1025 13.6025 16.8333 9 16.8333C4.3975 16.8333 0.666664 13.1025 0.666664 8.5C0.666664 3.8975 4.3975 0.166672 9 0.166672ZM10.3917 11.8333H7.60833L6.45833 13.4142L6.92 14.8358C7.5914 15.0557 8.29351 15.1674 9 15.1667C9.72583 15.1667 10.425 15.05 11.08 14.8358L11.5408 13.4142L10.3908 11.8333H10.3917ZM3.41166 7.56L2.335 8.34084L2.33333 8.5C2.33333 9.94167 2.79083 11.2758 3.56833 12.3667H5.16L6.2625 10.85L5.40583 8.20834L3.41166 7.56ZM14.5883 7.56L12.5942 8.20834L11.7375 10.85L12.8392 12.3667H14.4308C15.2365 11.2385 15.6687 9.88633 15.6667 8.5L15.6642 8.34084L14.5883 7.56ZM10.9083 2.11084L9.83333 2.89417V4.99167L12.0783 6.6225L13.9442 6.01667L14.4058 4.5975C13.5455 3.40656 12.3165 2.53255 10.9092 2.11084H10.9083ZM7.09 2.11084C5.68253 2.53276 4.4535 3.40709 3.59333 4.59834L4.055 6.01667L5.92083 6.6225L8.16666 4.99167V2.89417L7.09083 2.11084H7.09Z" fill="#8B9093"/>
</svg>
