<svg width="18" height="15" viewBox="0 0 18 15" fill="none" xmlns="http://www.w3.org/2000/svg">
<path d="M16.5739 5.26415H8.39965V6.48894H7.24691V5.2607C5.44577 5.47294 3.89346 6.73915 3.31004 8.44188C3.05103 8.29397 2.75744 8.20903 2.43785 8.20903C1.45802 8.20903 0.666672 9.00334 0.666672 9.98316C0.666672 10.963 1.46249 11.7573 2.44232 11.7573C2.76191 11.7573 3.06227 11.6723 3.32128 11.5244C3.96176 13.3938 5.73345 14.7382 7.81989 14.7382C10.4346 14.7382 12.5558 12.6277 12.5743 10.0174L16.7317 9.00168C17.1168 8.90838 17.3333 8.68634 17.3333 8.14599V5.91257C17.3333 5.51632 16.9702 5.26415 16.5739 5.26415Z" fill="#8B9093"/>
<path d="M7.82329 3.21084C8.14158 3.21084 8.39965 2.95278 8.39965 2.63448V1.4097C8.39965 1.0914 8.14158 0.833328 7.82329 0.833328C7.50499 0.833328 7.24692 1.0914 7.24692 1.4097V2.63448C7.24692 2.95278 7.50499 3.21084 7.82329 3.21084Z" fill="#8B9093"/>
<path d="M5.32401 3.89657C5.43661 4.0091 5.58402 4.06537 5.73157 4.06537C5.87912 4.06537 6.0266 4.0091 6.13913 3.89657C6.36421 3.67142 6.36421 3.30651 6.13913 3.08137L5.27307 2.2153C5.04793 1.9903 4.68309 1.9903 4.45794 2.2153C4.23287 2.44045 4.23287 2.80536 4.45794 3.0305L5.32401 3.89657Z" fill="#8B9093"/>
<path d="M9.90901 4.06538C10.0566 4.06538 10.2041 4.00911 10.3166 3.89651L11.1826 3.03044C11.4076 2.80537 11.4076 2.44039 11.1825 2.21532C10.9574 1.99017 10.5924 1.99024 10.3674 2.21539L9.50145 3.08145C9.27638 3.30652 9.27638 3.67143 9.50152 3.89651C9.61406 4.00919 9.76146 4.06538 9.90901 4.06538Z" fill="#8B9093"/>
</svg>
